<svg width="102" height="102" viewBox="0 0 102 102" fill="none" xmlns="http://www.w3.org/2000/svg">
<rect width="102" height="102" rx="13" fill="#4CC7EE"/>
<path d="M51.8274 34.368C51.5659 34.2559 51.2844 34.1981 51 34.1981C50.7155 34.1981 50.434 34.2559 50.1726 34.368L35.4726 40.668C35.0938 40.8294 34.7708 41.0985 34.5437 41.4421C34.3167 41.7856 34.1956 42.1882 34.1956 42.6C34.1956 43.0117 34.3167 43.4144 34.5437 43.7579C34.7708 44.1014 35.0938 44.3706 35.4726 44.532L41.025 46.9071C41.2311 46.674 41.4864 46.4896 41.7726 46.3674L50.1726 42.768C50.4268 42.6547 50.701 42.5931 50.9792 42.5867C51.2574 42.5803 51.5341 42.6292 51.7932 42.7307C52.0524 42.8322 52.2888 42.9841 52.4886 43.1778C52.6885 43.3714 52.8479 43.6028 52.9576 43.8586C53.0672 44.1144 53.125 44.3894 53.1274 44.6677C53.1298 44.946 53.0769 45.222 52.9718 45.4796C52.8666 45.7373 52.7113 45.9715 52.5148 46.1686C52.3184 46.3657 52.0847 46.5218 51.8274 46.6278L46.1007 49.0848L50.1747 50.8299C50.4358 50.9417 50.717 50.9993 51.001 50.9993C51.2851 50.9993 51.5662 50.9417 51.8274 50.8299L66.5274 44.5299C66.905 44.3679 67.2267 44.0987 67.4528 43.7557C67.6789 43.4127 67.7994 43.0108 67.7994 42.6C67.7994 42.1891 67.6789 41.7873 67.4528 41.4443C67.2267 41.1012 66.905 40.8321 66.5274 40.6701L51.8274 34.3701V34.368ZM36.951 49.7337L40.5 51.252V59.8662C39.7729 59.7008 39.0366 59.5788 38.295 59.5008C37.8165 59.4505 37.3698 59.2374 37.0296 58.8972C36.6894 58.557 36.4763 58.1103 36.426 57.6318C36.1498 54.9877 36.3274 52.3159 36.951 49.7316V49.7337ZM49.53 64.8033C48.1104 63.4104 46.4805 62.2496 44.7 61.3635V53.0538L48.5178 54.6918C49.3021 55.028 50.1466 55.2014 51 55.2014C51.8534 55.2014 52.6978 55.028 53.4822 54.6918L65.049 49.7337C65.6763 52.3174 65.8539 54.9899 65.574 57.6339C65.5237 58.1124 65.3106 58.5591 64.9704 58.8993C64.6302 59.2395 64.1835 59.4526 63.705 59.5029C59.4683 59.9481 55.5077 61.8166 52.47 64.8033C52.0774 65.1881 51.5497 65.4036 51 65.4036C50.4503 65.4036 49.9225 65.1881 49.53 64.8033V64.8033ZM42.6 67.8C43.1569 67.8 43.6911 67.5787 44.0849 67.1849C44.4787 66.7911 44.7 66.2569 44.7 65.7V61.3635C43.3644 60.6999 41.9544 60.198 40.5 59.8683V65.7C40.5 66.2569 40.7212 66.7911 41.1151 67.1849C41.5089 67.5787 42.043 67.8 42.6 67.8Z" fill="white"/>
</svg>
