<svg width="1440" height="900" viewBox="0 0 1440 900" fill="none" xmlns="http://www.w3.org/2000/svg">
<g opacity="0.4">
<mask id="mask0_3_998" style="mask-type:alpha" maskUnits="userSpaceOnUse" x="-16" y="0" width="1456" height="900">
<rect x="-16" y="0.799988" width="1456" height="899.2" fill="#D9D9D9"/>
</mask>
<g mask="url(#mask0_3_998)">
<g opacity="0.5">
<path d="M10.4 952.8C224 638.4 384 767.2 632 616.8C880 466.4 762.4 258.4 1128 125.6C1420.48 19.36 1618.4 81.3333 1680.8 125.6" stroke="white"/>
<path d="M77.6 959.2C189.6 809.6 354.4 780.8 575.2 760.8C796 740.8 856 544.8 946.4 369.6C1036.8 194.4 1353.6 87.2 1570.4 163.2" stroke="white"/>
<path d="M166.4 950.4C176.267 915.2 247.68 844.16 454.4 841.6C712.8 838.4 836 876 953.6 619.2C1071.2 362.4 1138.4 238.4 1335.2 220C1492.64 205.28 1549.07 213.867 1557.6 220" stroke="white"/>
<path d="M260.8 930.4C306.667 906.933 442.88 864 620.8 880C843.2 900 969.6 955.2 1088.8 682.4C1208 409.6 1240 252.8 1577.6 296" stroke="white"/>
<path d="M1524.8 348C1349.6 344.8 1251.2 433.6 1200.8 601.6C1150.4 769.6 1175.2 1000.8 846.4 1008" stroke="white"/>
</g>
</g>
</g>
</svg>
