<svg width="102" height="102" viewBox="0 0 102 102" fill="none" xmlns="http://www.w3.org/2000/svg">
<rect width="102" height="102" rx="13" fill="#FFAC5F"/>
<path fill-rule="evenodd" clip-rule="evenodd" d="M33.4 40C33.4 38.833 33.8636 37.7139 34.6888 36.8887C35.5139 36.0635 36.6331 35.6 37.8 35.6H64.2C65.367 35.6 66.4861 36.0635 67.3113 36.8887C68.1365 37.7139 68.6 38.833 68.6 40V62C68.6 63.1669 68.1365 64.2861 67.3113 65.1112C66.4861 65.9364 65.367 66.4 64.2 66.4H37.8C36.6331 66.4 35.5139 65.9364 34.6888 65.1112C33.8636 64.2861 33.4 63.1669 33.4 62V40ZM40.6446 42.8446C41.0572 42.4321 41.6167 42.2004 42.2 42.2004C42.7834 42.2004 43.3429 42.4321 43.7554 42.8446L50.3554 49.4446C50.7679 49.8571 50.9996 50.4166 50.9996 51C50.9996 51.5833 50.7679 52.1428 50.3554 52.5554L43.7554 59.1554C43.3405 59.5561 42.7848 59.7779 42.2079 59.7729C41.6311 59.7678 41.0793 59.5365 40.6714 59.1286C40.2635 58.7207 40.0322 58.1689 40.0271 57.5921C40.0221 57.0152 40.2439 56.4595 40.6446 56.0446L45.6892 51L40.6446 45.9554C40.2322 45.5428 40.0005 44.9833 40.0005 44.4C40.0005 43.8166 40.2322 43.2571 40.6446 42.8446V42.8446ZM53.2 55.4C52.6165 55.4 52.057 55.6318 51.6444 56.0443C51.2318 56.4569 51 57.0165 51 57.6C51 58.1835 51.2318 58.743 51.6444 59.1556C52.057 59.5682 52.6165 59.8 53.2 59.8H59.8C60.3835 59.8 60.9431 59.5682 61.3557 59.1556C61.7682 58.743 62 58.1835 62 57.6C62 57.0165 61.7682 56.4569 61.3557 56.0443C60.9431 55.6318 60.3835 55.4 59.8 55.4H53.2Z" fill="white"/>
</svg>
